<svg viewBox="0 0 32 32" fill="none" xmlns="http://www.w3.org/2000/svg">
  <defs>
    <!-- Gradients dùng cho chế độ hiển thị đa màu sắc (multicolor) -->
    <linearGradient id="shieldGrad" x1="0%" y1="0%" x2="100%" y2="100%">
      <stop offset="0%" stop-color="#3b82f6" /> <!-- Xanh dương điện tử -->
      <stop offset="100%" stop-color="#06b6d4" /> <!-- Xanh neon Cyan -->
    </linearGradient>
    <linearGradient id="fishGrad" x1="0%" y1="0%" x2="100%" y2="100%">
      <stop offset="0%" stop-color="#f43f5e" /> <!-- Hồng Rose -->
      <stop offset="100%" stop-color="#ec4899" /> <!-- Hồng cánh sen Neon -->
    </linearGradient>
  </defs>

  <!-- ── 1. SHIELD: Khiên bảo hộ an toàn chất lượng ── -->
  <path
    d="M16 2.5c6 0 9.5 2.2 9.5 8.5 0 7-6 13-9.5 15.8C12.5 24 6.5 18 6.5 11c0-6.3 3.5-8.5 9.5-8.5z"
    stroke="url(#shieldGrad)"
    stroke-width="1.8"
    stroke-linejoin="round"
    stroke-linecap="round" />

  <!-- ── 2. GC COLUMN: Vòng cột sắc ký mao quản đồng tâm ── -->
  <circle cx="16" cy="13" r="7.5" stroke="#06b6d4" stroke-width="0.9" stroke-opacity="0.25" />
  <circle cx="16" cy="13" r="5.2" stroke="#06b6d4" stroke-width="0.9" stroke-opacity="0.45" />
  <circle cx="16" cy="13" r="3"   stroke="#06b6d4" stroke-width="0.9" stroke-opacity="0.70" />

  <!-- ── 3. MS/MS QUADRUPOLE: Mặt cắt ngang 4 cực điện cực ── -->
  <circle cx="16"   cy="7"    r="1.2" fill="#a855f7" />
  <circle cx="16"   cy="19"   r="1.2" fill="#a855f7" />
  <circle cx="10.2" cy="13"   r="1.2" fill="#a855f7" />
  <circle cx="21.8" cy="13"   r="1.2" fill="#a855f7" />

  <!-- ── 4. FISH: Cá thủy sản nhảy cao cách điệu ── -->
  <path
    d="M10.5 17.5 C12 14.5 14 12.5 16.5 12.5 C18.5 12.5 19.8 13.8 20 15.2 C18.5 15 17 14.6 15.5 14.8 C13.5 15.1 11.8 16.5 10.5 17.5Z"
    fill="url(#fishGrad)" />
  <path
    d="M10.5 17.5 L8.5 15.8 L9 17.5 L8.5 19.2 Z"
    fill="url(#fishGrad)" />
  <path
    d="M14 13.5 C14.5 12 15.5 11.5 16.5 12.5"
    stroke="#f43f5e" stroke-width="0.8" stroke-linecap="round" />
  <circle cx="19.2" cy="14.2" r="0.45" fill="#f43f5e" fill-opacity="0.3" />
  <circle cx="19.2" cy="14.2" r="0.22" fill="#ffffff" />

  <!-- ── 5. CHROMATOGRAM: Sắc ký đồ 3 đỉnh peak tại đáy khiên ── -->
  <path
    d="M8.5 22.5
       C9.5 22.5 10 19 10.8 19
       S11.6 22.5 12.5 22.5
       C13 22.5 13.5 17 14.8 15.5
       C15.5 14.5 16 17 16.5 22.5
       C17 22.5 17.5 20.5 18.2 20.5
       S19 22.5 20 22.5
       H22.5"
    stroke="#f43f5e"
    stroke-width="1.8"
    stroke-linejoin="round"
    stroke-linecap="round" />

</svg>
